<?xml version="1.0" encoding="utf-8"?>
<svg viewBox="0 0 232 68" xmlns="http://www.w3.org/2000/svg">
  <path d="M64.6 16.2C63 9.9 58.1 5 51.8 3.4 40 1.5 28 1.5 16.2 3.4 9.9 5 5 9.9 3.4 16.2 1.5 28 1.5 40 3.4 51.8 5 58.1 9.9 63 16.2 64.6c11.8 1.9 23.8 1.9 35.6 0C58.1 63 63 58.1 64.6 51.8c1.9-11.8 1.9-23.8 0-35.6zM33.3 36.3c-2.8 4.4-6.6 8.2-11.1 11-1.5.9-3.3.9-4.8.1s-2.4-2.3-2.5-4c0-1.7.9-3.3 2.4-4.1 2.3-1.4 4.4-3.2 6.1-5.3-1.8-2.1-3.8-3.8-6.1-5.3-2.3-1.3-3-4.2-1.7-6.4s4.3-2.9 6.5-1.6c4.5 2.8 8.2 6.5 11.1 10.9 1 1.4 1 3.3.1 4.7zM49.2 46H37.8c-2.1 0-3.8-1-3.8-3s1.7-3 3.8-3h11.4c2.1 0 3.8 1 3.8 3s-1.7 3-3.8 3z" fill="#206bc4"/>
  <path d="M 95.711 50.138 C 93.551 50.138 91.468 49.821 89.461 49.188 C 87.461 48.555 85.551 47.578 83.731 46.258 L 83.731 38.668 L 87.461 38.668 L 88.271 44.258 C 89.331 44.911 90.478 45.415 91.711 45.768 C 92.951 46.128 94.284 46.308 95.711 46.308 C 97.344 46.308 98.724 46.061 99.851 45.568 C 100.984 45.068 101.851 44.378 102.451 43.498 C 103.058 42.618 103.361 41.595 103.361 40.428 C 103.361 39.335 103.101 38.375 102.581 37.548 C 102.054 36.715 101.194 35.985 100.001 35.358 C 98.808 34.731 97.174 34.181 95.101 33.708 C 92.661 33.141 90.601 32.381 88.921 31.428 C 87.234 30.475 85.954 29.318 85.081 27.958 C 84.214 26.598 83.781 25.041 83.781 23.288 C 83.781 21.428 84.271 19.768 85.251 18.308 C 86.238 16.841 87.611 15.685 89.371 14.838 C 91.124 13.991 93.174 13.568 95.521 13.568 C 98.008 13.568 100.208 13.948 102.121 14.708 C 104.034 15.461 105.611 16.375 106.851 17.448 L 106.851 24.558 L 103.111 24.558 L 102.311 19.478 C 101.578 18.891 100.664 18.401 99.571 18.008 C 98.484 17.621 97.134 17.428 95.521 17.428 C 94.154 17.428 92.951 17.668 91.911 18.148 C 90.864 18.628 90.048 19.298 89.461 20.158 C 88.881 21.025 88.591 22.041 88.591 23.208 C 88.591 24.235 88.854 25.131 89.381 25.898 C 89.908 26.665 90.771 27.335 91.971 27.908 C 93.164 28.488 94.761 29.031 96.761 29.538 C 100.508 30.465 103.344 31.835 105.271 33.648 C 107.204 35.461 108.171 37.705 108.171 40.378 C 108.171 42.278 107.658 43.965 106.631 45.438 C 105.604 46.911 104.158 48.065 102.291 48.898 C 100.431 49.725 98.238 50.138 95.711 50.138 ZM 122.254 49.628 L 112.074 49.628 L 112.074 46.548 L 114.714 46.188 L 127.134 14.078 L 131.264 14.078 L 143.474 46.188 L 146.084 46.548 L 146.084 49.628 L 135.874 49.628 L 135.874 46.548 L 138.564 46.088 L 136.214 39.548 L 121.984 39.548 L 119.564 46.088 L 122.254 46.548 L 122.254 49.628 Z M 128.794 21.068 L 123.474 35.518 L 134.754 35.518 L 129.534 21.068 L 129.234 20.258 L 129.094 20.258 L 128.794 21.068 ZM 159.681 49.628 L 149.501 49.628 L 149.501 46.548 L 152.141 46.188 L 164.561 14.078 L 168.691 14.078 L 180.901 46.188 L 183.511 46.548 L 183.511 49.628 L 173.301 49.628 L 173.301 46.548 L 175.991 46.088 L 173.641 39.548 L 159.411 39.548 L 156.991 46.088 L 159.681 46.548 L 159.681 49.628 Z M 166.221 21.068 L 160.901 35.518 L 172.181 35.518 L 166.961 21.068 L 166.661 20.258 L 166.521 20.258 L 166.221 21.068 ZM 200.008 50.138 C 197.848 50.138 195.765 49.821 193.758 49.188 C 191.758 48.555 189.848 47.578 188.028 46.258 L 188.028 38.668 L 191.758 38.668 L 192.568 44.258 C 193.628 44.911 194.775 45.415 196.008 45.768 C 197.248 46.128 198.581 46.308 200.008 46.308 C 201.641 46.308 203.021 46.061 204.148 45.568 C 205.281 45.068 206.148 44.378 206.748 43.498 C 207.355 42.618 207.658 41.595 207.658 40.428 C 207.658 39.335 207.398 38.375 206.878 37.548 C 206.351 36.715 205.491 35.985 204.298 35.358 C 203.105 34.731 201.471 34.181 199.398 33.708 C 196.958 33.141 194.898 32.381 193.218 31.428 C 191.531 30.475 190.251 29.318 189.378 27.958 C 188.511 26.598 188.078 25.041 188.078 23.288 C 188.078 21.428 188.568 19.768 189.548 18.308 C 190.535 16.841 191.908 15.685 193.668 14.838 C 195.421 13.991 197.471 13.568 199.818 13.568 C 202.305 13.568 204.505 13.948 206.418 14.708 C 208.331 15.461 209.908 16.375 211.148 17.448 L 211.148 24.558 L 207.408 24.558 L 206.608 19.478 C 205.875 18.891 204.961 18.401 203.868 18.008 C 202.781 17.621 201.431 17.428 199.818 17.428 C 198.451 17.428 197.248 17.668 196.208 18.148 C 195.161 18.628 194.345 19.298 193.758 20.158 C 193.178 21.025 192.888 22.041 192.888 23.208 C 192.888 24.235 193.151 25.131 193.678 25.898 C 194.205 26.665 195.068 27.335 196.268 27.908 C 197.461 28.488 199.058 29.031 201.058 29.538 C 204.805 30.465 207.641 31.835 209.568 33.648 C 211.501 35.461 212.468 37.705 212.468 40.378 C 212.468 42.278 211.955 43.965 210.928 45.438 C 209.901 46.911 208.455 48.065 206.588 48.898 C 204.728 49.725 202.535 50.138 200.008 50.138 Z" transform="matrix(1, 0, 0, 1, 0, 0)" style="fill: rgb(51, 51, 51); white-space: pre;"/>
</svg>